<svg xmlns="http://www.w3.org/2000/svg" xmlns:xlink="http://www.w3.org/1999/xlink" xmlns:svgjs="http://svgjs.com/svgjs" class="animated" id="freepik_stories-asset-selection" viewBox="0 0 500 500"><style>svg#freepik_stories-asset-selection:not(.animated) .animable {opacity: 0;}svg#freepik_stories-asset-selection.animated #freepik--asset-1--inject-3 {animation: 3s Infinite  linear wind;animation-delay: 0s;}svg#freepik_stories-asset-selection.animated #freepik--Selection--inject-3 {animation: 3s Infinite  linear floating;animation-delay: 0s;}            @keyframes wind {                0% {                    transform: rotate( 0deg );                }                25% {                    transform: rotate( 1deg );                }                75% {                    transform: rotate( -1deg );                }            }                    @keyframes floating {                0% {                    opacity: 1;                    transform: translateY(0px);                }                50% {                    transform: translateY(-10px);                }                100% {                    opacity: 1;                    transform: translateY(0px);                }            }        </style><g id="freepik--background-complete--inject-3" class="animable" style="transform-origin: 250px 228.23px;"><rect y="382.4" width="500" height="0.25" style="fill: rgb(235, 235, 235); transform-origin: 250px 382.525px;" id="elmoq1th525s" class="animable"></rect><rect x="416.78" y="398.49" width="33.12" height="0.25" style="fill: rgb(235, 235, 235); transform-origin: 433.34px 398.615px;" id="el44vou4fgjx9" class="animable"></rect><rect x="322.53" y="401.21" width="8.69" height="0.25" style="fill: rgb(235, 235, 235); transform-origin: 326.875px 401.335px;" id="ellc69p1zazhi" class="animable"></rect><rect x="396.59" y="389.21" width="19.19" height="0.25" style="fill: rgb(235, 235, 235); transform-origin: 406.185px 389.335px;" id="elldobo6aiibg" class="animable"></rect><rect x="52.46" y="390.89" width="43.19" height="0.25" style="fill: rgb(235, 235, 235); transform-origin: 74.055px 391.015px;" id="elfxyvvw6gmgb" class="animable"></rect><rect x="104.56" y="390.89" width="6.33" height="0.25" style="fill: rgb(235, 235, 235); transform-origin: 107.725px 391.015px;" id="elfe6qkoalvtk" class="animable"></rect><rect x="131.47" y="395.11" width="93.68" height="0.25" style="fill: rgb(235, 235, 235); transform-origin: 178.31px 395.235px;" id="elwaxfhb5ycl" class="animable"></rect><path d="M237,337.8H43.91a5.71,5.71,0,0,1-5.7-5.71V60.66A5.71,5.71,0,0,1,43.91,55H237a5.71,5.71,0,0,1,5.71,5.71V332.09A5.71,5.71,0,0,1,237,337.8ZM43.91,55.2a5.46,5.46,0,0,0-5.45,5.46V332.09a5.46,5.46,0,0,0,5.45,5.46H237a5.47,5.47,0,0,0,5.46-5.46V60.66A5.47,5.47,0,0,0,237,55.2Z" style="fill: rgb(235, 235, 235); transform-origin: 140.46px 196.4px;" id="elhazlfib2bgr" class="animable"></path><path d="M453.31,337.8H260.21a5.72,5.72,0,0,1-5.71-5.71V60.66A5.72,5.72,0,0,1,260.21,55h193.1A5.71,5.71,0,0,1,459,60.66V332.09A5.71,5.71,0,0,1,453.31,337.8ZM260.21,55.2a5.47,5.47,0,0,0-5.46,5.46V332.09a5.47,5.47,0,0,0,5.46,5.46h193.1a5.47,5.47,0,0,0,5.46-5.46V60.66a5.47,5.47,0,0,0-5.46-5.46Z" style="fill: rgb(235, 235, 235); transform-origin: 356.75px 196.4px;" id="elzci9c80tfld" class="animable"></path><path d="M85.38,345.83c0-.4,1.35-39.68,7.74-45.89,6.21-6,13.34-.23,13.64,0l.64-.77c-.08-.06-8.13-6.63-15,0-6.68,6.49-8,44.94-8,46.57Z" style="fill: rgb(224, 224, 224); transform-origin: 95.9px 321.02px;" id="elcq6tbhqynot" class="animable"></path><path d="M84.84,353.54c0-.46,4.36-47.15-12.69-66.72l-.75.66c16.77,19.24,12.49,65.5,12.44,66Z" style="fill: rgb(224, 224, 224); transform-origin: 78.3696px 320.18px;" id="ell5qt3v32kel" class="animable"></path><path d="M85.47,348.61l1-.07c0-.53-3.33-53.08,9.17-64.58l-.67-.74C82.1,295.05,85.32,346.42,85.47,348.61Z" style="fill: rgb(224, 224, 224); transform-origin: 90.3226px 315.915px;" id="elgur4964q8ih" class="animable"></path><path d="M83.84,348.58h1c0-1.45-.41-35.49-10.09-41a6.86,6.86,0,0,0-6.25-.61c-5.85,2.42-8.75,12.83-8.87,13.27l1,.27c0-.11,2.89-10.38,8.28-12.61a5.91,5.91,0,0,1,5.38.55C83.43,313.66,83.84,348.23,83.84,348.58Z" style="fill: rgb(224, 224, 224); transform-origin: 72.235px 327.533px;" id="el2wscynr9gvf" class="animable"></path><path d="M87.6,348.6l1-.06c0-.26-1.46-26.9,5.73-36.28C96.07,310,98,308.9,100,309c4.71.33,8.66,7.22,8.7,7.29l.87-.49c-.17-.31-4.25-7.43-9.5-7.8-2.34-.17-4.53,1-6.49,3.61C86.12,321.33,87.54,347.49,87.6,348.6Z" style="fill: rgb(224, 224, 224); transform-origin: 98.5122px 328.292px;" id="eleupwmfy11tr" class="animable"></path><path d="M86,352.22c.19-2.58,4.7-63.4-3.23-74.11l-.8.59c7.7,10.42,3.08,72.82,3,73.45Z" style="fill: rgb(224, 224, 224); transform-origin: 84.709px 315.165px;" id="el9o00iz20c8" class="animable"></path><path d="M66.34,313.09s4.76,1.75,3.34,5.89-16.44,10.94-16.44,10.94-6.3-5.77-.52-15.15S66.21,310.13,66.34,313.09Z" style="fill: rgb(235, 235, 235); transform-origin: 60.1119px 319.577px;" id="elyy0t956zk4j" class="animable"></path><path d="M87,305.21S82,305,81.66,309.36s11,16.43,11,16.43,8-2.9,6.31-13.79S88.27,302.53,87,305.21Z" style="fill: rgb(235, 235, 235); transform-origin: 90.4285px 314.547px;" id="elgfnbs9cjrqu" class="animable"></path><path d="M91.29,284.33s-3.37-.36-3.1-2.42,13.12-7.34,20.7,1.21c0,0-4.85,8.34-11.87,8.45S91.29,284.33,91.29,284.33Z" style="fill: rgb(235, 235, 235); transform-origin: 98.5323px 284.987px;" id="elomv06er3eq" class="animable"></path><path d="M85,279.34s3.06,1.47,3.92-.41S81.67,265.75,70.71,269c0,0-.29,9.65,5.61,13.45S85,279.34,85,279.34Z" style="fill: rgb(235, 235, 235); transform-origin: 79.8451px 276.004px;" id="el80awsqessoo" class="animable"></path><path d="M101,311.42s-2.33-1.88.19-2.79,14.84-.66,15,11.56c0,0-14.36,2.38-16.14-2.27S101,311.42,101,311.42Z" style="fill: rgb(235, 235, 235); transform-origin: 107.819px 314.554px;" id="eleiyttobpcms" class="animable"></path><path d="M71.69,284s2.33-1.88-.18-2.8-14.85-.65-15,11.56c0,0,14.37,2.39,16.14-2.26S71.69,284,71.69,284Z" style="fill: rgb(235, 235, 235); transform-origin: 64.8785px 287.125px;" id="elgvh6zyd6qrh" class="animable"></path><path d="M79.28,293.86s.21-2.28-1.64-1.39-8.27,7.84-1.61,14.42c0,0,9-6.65,7.36-10.11S79.28,293.86,79.28,293.86Z" style="fill: rgb(235, 235, 235); transform-origin: 78.3325px 299.577px;" id="eln6t0eethyme" class="animable"></path><path d="M103.07,297.12s-1.4-1.82.64-2.05,11.18,2.21,9.05,11.34c0,0-11.13-.84-11.61-4.63S103.07,297.12,103.07,297.12Z" style="fill: rgb(235, 235, 235); transform-origin: 107.083px 300.733px;" id="elp1nz2e716jf" class="animable"></path><polygon points="65.45 382.44 103.65 382.44 107.77 340.62 61.33 340.62 65.45 382.44" style="fill: rgb(240, 240, 240); transform-origin: 84.55px 361.53px;" id="elp0rp0dpzvsa" class="animable"></polygon><g id="elosbauzvrcyo"><rect x="59.29" y="336" width="50.52" height="9.23" style="fill: rgb(230, 230, 230); transform-origin: 84.55px 340.615px; transform: rotate(180deg);" class="animable"></rect></g><path d="M414.22,345.83c0-.4-1.34-39.68-7.73-45.89-6.21-6-13.35-.23-13.64,0l-.65-.77c.09-.06,8.13-6.63,15,0,6.68,6.49,8,44.94,8,46.57Z" style="fill: rgb(224, 224, 224); transform-origin: 403.7px 321.02px;" id="elccmq74c0wza" class="animable"></path><path d="M414.77,353.54c0-.46-4.36-47.15,12.69-66.72l.75.66c-16.77,19.24-12.49,65.5-12.44,66Z" style="fill: rgb(224, 224, 224); transform-origin: 421.24px 320.18px;" id="elshs4ukidttq" class="animable"></path><path d="M414.14,348.61l-1-.07c0-.53,3.34-53.08-9.17-64.58l.68-.74C417.51,295.05,414.29,346.42,414.14,348.61Z" style="fill: rgb(224, 224, 224); transform-origin: 409.288px 315.915px;" id="ele6vfjwdjfo" class="animable"></path><path d="M415.77,348.58h-1c0-1.45.41-35.49,10.08-41a6.88,6.88,0,0,1,6.26-.61c5.85,2.42,8.75,12.83,8.87,13.27l-1,.27c0-.11-2.89-10.38-8.28-12.61a5.91,5.91,0,0,0-5.38.55C416.17,313.66,415.77,348.23,415.77,348.58Z" style="fill: rgb(224, 224, 224); transform-origin: 427.375px 327.533px;" id="el3avxq3ybe8q" class="animable"></path><path d="M412,348.6l-1-.06c0-.26,1.46-26.9-5.73-36.28-1.74-2.28-3.64-3.36-5.63-3.22-4.71.33-8.66,7.22-8.7,7.29l-.87-.49c.17-.31,4.25-7.43,9.5-7.8,2.34-.17,4.53,1,6.49,3.61C413.48,321.33,412.07,347.49,412,348.6Z" style="fill: rgb(224, 224, 224); transform-origin: 401.11px 328.312px;" id="elna300moq5k" class="animable"></path><path d="M413.58,352.22c-.2-2.58-4.7-63.4,3.23-74.11l.8.59c-7.71,10.42-3.08,72.82-3,73.45Z" style="fill: rgb(224, 224, 224); transform-origin: 414.869px 315.165px;" id="elp7eldqkrm6" class="animable"></path><path d="M433.27,313.09s-4.76,1.75-3.34,5.89,16.44,10.94,16.44,10.94,6.3-5.77.51-15.15S433.39,310.13,433.27,313.09Z" style="fill: rgb(235, 235, 235); transform-origin: 439.496px 319.577px;" id="elui7rgcn2aj" class="animable"></path><path d="M412.6,305.21s5.06-.21,5.35,4.15-11,16.43-11,16.43-8-2.9-6.3-13.79S411.34,302.53,412.6,305.21Z" style="fill: rgb(235, 235, 235); transform-origin: 409.184px 314.547px;" id="eleruvu0wd57" class="animable"></path><path d="M408.32,284.33s3.37-.36,3.1-2.42-13.12-7.34-20.7,1.21c0,0,4.85,8.34,11.87,8.45S408.32,284.33,408.32,284.33Z" style="fill: rgb(235, 235, 235); transform-origin: 401.078px 284.987px;" id="elx77rjy682ui" class="animable"></path><path d="M414.6,279.34s-3.05,1.47-3.91-.41,7.25-13.18,18.21-9.93c0,0,.29,9.65-5.61,13.45S414.6,279.34,414.6,279.34Z" style="fill: rgb(235, 235, 235); transform-origin: 419.765px 276.004px;" id="elphmkrc701gr" class="animable"></path><path d="M398.63,311.42s2.33-1.88-.19-2.79-14.85-.66-15,11.56c0,0,14.36,2.38,16.14-2.27S398.63,311.42,398.63,311.42Z" style="fill: rgb(235, 235, 235); transform-origin: 391.811px 314.554px;" id="elm4320gy01rg" class="animable"></path><path d="M427.92,284s-2.33-1.88.18-2.8,14.85-.65,15,11.56c0,0-14.37,2.39-16.14-2.26S427.92,284,427.92,284Z" style="fill: rgb(235, 235, 235); transform-origin: 434.732px 287.125px;" id="elp6suf24zhjq" class="animable"></path><path d="M420.32,293.86s-.2-2.28,1.64-1.39,8.28,7.84,1.62,14.42c0,0-9-6.65-7.36-10.11S420.32,293.86,420.32,293.86Z" style="fill: rgb(235, 235, 235); transform-origin: 421.275px 299.577px;" id="elcx1cume66yu" class="animable"></path><path d="M396.54,297.12s1.4-1.82-.64-2.05-11.18,2.21-9,11.34c0,0,11.13-.84,11.61-4.63S396.54,297.12,396.54,297.12Z" style="fill: rgb(235, 235, 235); transform-origin: 392.569px 300.733px;" id="elghgy0l8uged" class="animable"></path><polygon points="434.15 382.44 395.96 382.44 391.84 340.62 438.28 340.62 434.15 382.44" style="fill: rgb(240, 240, 240); transform-origin: 415.06px 361.53px;" id="el4p6ci2jpgoa" class="animable"></polygon><rect x="389.8" y="336" width="50.52" height="9.23" style="fill: rgb(230, 230, 230); transform-origin: 415.06px 340.615px;" id="el3ycqxtnn4p" class="animable"></rect><rect x="136.02" y="127.77" width="101.72" height="204.54" style="fill: rgb(250, 250, 250); transform-origin: 186.88px 230.04px;" id="el4mnqu14olpt" class="animable"></rect><rect x="133.67" y="124.99" width="106.42" height="10.04" style="fill: rgb(240, 240, 240); transform-origin: 186.88px 130.01px;" id="elqltiz2s62rp" class="animable"></rect><rect x="133.67" y="136.14" width="106.42" height="5.02" style="fill: rgb(240, 240, 240); transform-origin: 186.88px 138.65px;" id="elpvbj64s42la" class="animable"></rect><rect x="133.67" y="143.59" width="106.42" height="5.02" style="fill: rgb(240, 240, 240); transform-origin: 186.88px 146.1px;" id="elm4ltxv5aei" class="animable"></rect><rect x="133.67" y="151.04" width="106.42" height="5.02" style="fill: rgb(240, 240, 240); transform-origin: 186.88px 153.55px;" id="elbpouw4aeezo" class="animable"></rect><rect x="133.67" y="158.49" width="106.42" height="5.02" style="fill: rgb(240, 240, 240); transform-origin: 186.88px 161px;" id="el6n38gkmef1" class="animable"></rect><rect x="133.67" y="165.93" width="106.42" height="5.02" style="fill: rgb(240, 240, 240); transform-origin: 186.88px 168.44px;" id="elg09hcn5zj1" class="animable"></rect><rect x="133.67" y="173.38" width="106.42" height="5.02" style="fill: rgb(240, 240, 240); transform-origin: 186.88px 175.89px;" id="elng5xqf1kl1g" class="animable"></rect><rect x="133.67" y="180.83" width="106.42" height="5.02" style="fill: rgb(240, 240, 240); transform-origin: 186.88px 183.34px;" id="elfaqfyyayp8k" class="animable"></rect><rect x="133.67" y="188.28" width="106.42" height="5.02" style="fill: rgb(240, 240, 240); transform-origin: 186.88px 190.79px;" id="eli87bjk54umi" class="animable"></rect><rect x="133.67" y="195.73" width="106.42" height="5.02" style="fill: rgb(240, 240, 240); transform-origin: 186.88px 198.24px;" id="elm3ebcexzf4g" class="animable"></rect><rect x="133.67" y="203.18" width="106.42" height="5.02" style="fill: rgb(240, 240, 240); transform-origin: 186.88px 205.69px;" id="elxy8p65vfdye" class="animable"></rect><rect x="133.67" y="210.62" width="106.42" height="5.02" style="fill: rgb(240, 240, 240); transform-origin: 186.88px 213.13px;" id="el0kqhzpsto1zm" class="animable"></rect><rect x="133.67" y="218.07" width="106.42" height="5.02" style="fill: rgb(240, 240, 240); transform-origin: 186.88px 220.58px;" id="elua7wmqnmgy" class="animable"></rect><rect x="133.67" y="225.52" width="106.42" height="5.02" style="fill: rgb(240, 240, 240); transform-origin: 186.88px 228.03px;" id="elqmd8k4tnn6" class="animable"></rect><rect x="133.67" y="232.97" width="106.42" height="5.02" style="fill: rgb(240, 240, 240); transform-origin: 186.88px 235.48px;" id="ela15gxw3ksli" class="animable"></rect><rect x="133.67" y="240.42" width="106.42" height="5.02" style="fill: rgb(240, 240, 240); transform-origin: 186.88px 242.93px;" id="eldk55niyitt" class="animable"></rect><rect x="133.67" y="247.86" width="106.42" height="5.02" style="fill: rgb(240, 240, 240); transform-origin: 186.88px 250.37px;" id="elj0ncw8sgu5" class="animable"></rect><rect x="133.67" y="255.31" width="106.42" height="5.02" style="fill: rgb(240, 240, 240); transform-origin: 186.88px 257.82px;" id="el8zd9g23ixlb" class="animable"></rect><rect x="133.67" y="262.76" width="106.42" height="5.02" style="fill: rgb(240, 240, 240); transform-origin: 186.88px 265.27px;" id="elzdzkvlf88os" class="animable"></rect><rect x="133.67" y="270.21" width="106.42" height="5.02" style="fill: rgb(240, 240, 240); transform-origin: 186.88px 272.72px;" id="elkslapf071f" class="animable"></rect><rect x="133.67" y="277.66" width="106.42" height="5.02" style="fill: rgb(240, 240, 240); transform-origin: 186.88px 280.17px;" id="eltq2wihgr0w" class="animable"></rect><rect x="133.67" y="285.11" width="106.42" height="5.02" style="fill: rgb(240, 240, 240); transform-origin: 186.88px 287.62px;" id="elwkqv60kpp0d" class="animable"></rect><rect x="133.67" y="292.55" width="106.42" height="5.02" style="fill: rgb(240, 240, 240); transform-origin: 186.88px 295.06px;" id="elht0t9bpd1pa" class="animable"></rect><rect x="133.67" y="300" width="106.42" height="5.02" style="fill: rgb(240, 240, 240); transform-origin: 186.88px 302.51px;" id="elqqdqrrn3kvj" class="animable"></rect><rect x="133.67" y="307.45" width="106.42" height="5.02" style="fill: rgb(240, 240, 240); transform-origin: 186.88px 309.96px;" id="elopl9ts2cr9" class="animable"></rect><rect x="133.67" y="314.9" width="106.42" height="5.02" style="fill: rgb(240, 240, 240); transform-origin: 186.88px 317.41px;" id="el42ynmnpcgwf" class="animable"></rect><rect x="133.67" y="322.35" width="106.42" height="5.02" style="fill: rgb(240, 240, 240); transform-origin: 186.88px 324.86px;" id="el15k83ir6s5x" class="animable"></rect><rect x="133.67" y="329.79" width="106.42" height="5.02" style="fill: rgb(240, 240, 240); transform-origin: 186.88px 332.3px;" id="eld3jvqk080uk" class="animable"></rect><rect x="262.26" y="127.77" width="101.72" height="204.54" style="fill: rgb(250, 250, 250); transform-origin: 313.12px 230.04px;" id="elwfw8hi74a5" class="animable"></rect><rect x="259.91" y="124.99" width="106.42" height="10.04" style="fill: rgb(240, 240, 240); transform-origin: 313.12px 130.01px;" id="elz3rfq8flybi" class="animable"></rect><rect x="259.91" y="136.14" width="106.42" height="0.92" style="fill: rgb(240, 240, 240); transform-origin: 313.12px 136.6px;" id="el5j2xg33aby5" class="animable"></rect><rect x="259.91" y="138.24" width="106.42" height="0.92" style="fill: rgb(240, 240, 240); transform-origin: 313.12px 138.7px;" id="elrwgoo6xkzxf" class="animable"></rect><rect x="259.91" y="140.33" width="106.42" height="0.92" style="fill: rgb(240, 240, 240); transform-origin: 313.12px 140.79px;" id="el7hpsf1u3std" class="animable"></rect><rect x="259.91" y="142.43" width="106.42" height="0.92" style="fill: rgb(240, 240, 240); transform-origin: 313.12px 142.89px;" id="el71zelsygrq6" class="animable"></rect><rect x="259.91" y="144.52" width="106.42" height="0.92" style="fill: rgb(240, 240, 240); transform-origin: 313.12px 144.98px;" id="el4zh8kshhc1p" class="animable"></rect><rect x="259.91" y="146.62" width="106.42" height="0.92" style="fill: rgb(240, 240, 240); transform-origin: 313.12px 147.08px;" id="elpyxsyjqwlqe" class="animable"></rect><rect x="259.91" y="148.71" width="106.42" height="0.92" style="fill: rgb(240, 240, 240); transform-origin: 313.12px 149.17px;" id="el5udan477t47" class="animable"></rect><rect x="259.91" y="150.81" width="106.42" height="0.92" style="fill: rgb(240, 240, 240); transform-origin: 313.12px 151.27px;" id="elbhd0rtr1buf" class="animable"></rect><rect x="259.91" y="152.91" width="106.42" height="0.92" style="fill: rgb(240, 240, 240); transform-origin: 313.12px 153.37px;" id="elkp5r7dpv6m" class="animable"></rect><rect x="259.91" y="155" width="106.42" height="0.92" style="fill: rgb(240, 240, 240); transform-origin: 313.12px 155.46px;" id="elx4cpq897nk" class="animable"></rect><rect x="259.91" y="157.1" width="106.42" height="0.92" style="fill: rgb(240, 240, 240); transform-origin: 313.12px 157.56px;" id="elr2ec1sn3z3" class="animable"></rect><rect x="259.91" y="159.19" width="106.42" height="0.92" style="fill: rgb(240, 240, 240); transform-origin: 313.12px 159.65px;" id="elgxlait2vgmc" class="animable"></rect><rect x="259.91" y="161.29" width="106.42" height="0.92" style="fill: rgb(240, 240, 240); transform-origin: 313.12px 161.75px;" id="el0pyz401budar" class="animable"></rect><rect x="259.91" y="163.38" width="106.42" height="0.92" style="fill: rgb(240, 240, 240); transform-origin: 313.12px 163.84px;" id="elilggrcmqfn" class="animable"></rect><rect x="259.91" y="165.48" width="106.42" height="0.92" style="fill: rgb(240, 240, 240); transform-origin: 313.12px 165.94px;" id="eln76cfhvdib9" class="animable"></rect><rect x="259.91" y="167.58" width="106.42" height="0.92" style="fill: rgb(240, 240, 240); transform-origin: 313.12px 168.04px;" id="el6gn4o4w377i" class="animable"></rect><rect x="259.91" y="169.67" width="106.42" height="0.92" style="fill: rgb(240, 240, 240); transform-origin: 313.12px 170.13px;" id="ela4li3ckazsa" class="animable"></rect><rect x="259.91" y="171.77" width="106.42" height="0.92" style="fill: rgb(240, 240, 240); transform-origin: 313.12px 172.23px;" id="elhzk1deh4wfp" class="animable"></rect><g id="elq5wtj2qiiq7"><circle cx="250" cy="96.28" r="15.17" style="fill: rgb(240, 240, 240); transform-origin: 250px 96.28px; transform: rotate(-80.78deg);" class="animable"></circle></g><g id="ellos761rfgal"><circle cx="250" cy="96.28" r="12.9" style="fill: rgb(250, 250, 250); transform-origin: 250px 96.28px; transform: rotate(-80.78deg);" class="animable"></circle></g><polyline points="249.39 87.43 249.39 96.45 243.42 93.07" style="fill: rgb(240, 240, 240); stroke: rgb(224, 224, 224); stroke-linecap: round; stroke-linejoin: round; stroke-width: 2px; transform-origin: 246.405px 91.94px;" id="eltndrm2dkq9d" class="animable"></polyline></g><g id="freepik--Shadow--inject-3" class="animable" style="transform-origin: 250px 416.24px;"><ellipse id="freepik--path--inject-3" cx="250" cy="416.24" rx="193.89" ry="11.32" style="fill: rgb(245, 245, 245); transform-origin: 250px 416.24px;" class="animable"></ellipse></g><g id="freepik--Interface--inject-3" class="animable" style="transform-origin: 264.43px 225.915px;"><g id="elrmdj0m62med"><rect x="252.11" y="153.76" width="190.02" height="206.76" rx="3.65" style="fill: rgb(49, 155, 128); opacity: 0.5; transform-origin: 347.12px 257.14px;" class="animable"></rect></g><rect x="246.11" y="149.76" width="190.02" height="206.76" rx="3.65" style="fill: rgb(49, 155, 128); transform-origin: 341.12px 253.14px;" id="elesrbuk0l99u" class="animable"></rect><g id="elfd9396hd8f"><rect x="246.11" y="149.76" width="190.02" height="206.76" rx="3.65" style="fill: rgb(255, 255, 255); opacity: 0.8; isolation: isolate; transform-origin: 341.12px 253.14px;" class="animable"></rect></g><g id="elndqc3y3hcmm"><rect x="92.73" y="148.87" width="100.02" height="176.76" rx="3.65" style="fill: rgb(49, 155, 128); opacity: 0.5; transform-origin: 142.74px 237.25px;" class="animable"></rect></g><rect x="86.73" y="142.87" width="100.02" height="176.76" rx="3.65" style="fill: rgb(49, 155, 128); transform-origin: 136.74px 231.25px;" id="elysy1pov59mq" class="animable"></rect><g id="elxwd7yxy6qse"><rect x="86.73" y="142.87" width="100.02" height="176.76" rx="3.65" style="fill: rgb(255, 255, 255); opacity: 0.8; isolation: isolate; transform-origin: 136.74px 231.25px;" class="animable"></rect></g><rect x="86.73" y="91.31" width="350.2" height="23.26" rx="3.85" style="fill: rgb(49, 155, 128); transform-origin: 261.83px 102.94px;" id="elwutaxugw6o" class="animable"></rect><g id="ela1d9p41wuv"><path d="M401.39,102.94a4.49,4.49,0,1,1-4.49-4.54A4.51,4.51,0,0,1,401.39,102.94Z" style="fill: rgb(255, 255, 255); opacity: 0.6; isolation: isolate; transform-origin: 396.9px 102.89px;" class="animable"></path></g><g id="elhz9waxcpwof"><path d="M415.43,102.94a4.49,4.49,0,1,1-4.49-4.54A4.51,4.51,0,0,1,415.43,102.94Z" style="fill: rgb(255, 255, 255); opacity: 0.6; isolation: isolate; transform-origin: 410.94px 102.89px;" class="animable"></path></g><g id="elualhxzqjsfi"><path d="M429.46,102.94A4.49,4.49,0,1,1,425,98.4,4.51,4.51,0,0,1,429.46,102.94Z" style="fill: rgb(255, 255, 255); opacity: 0.6; isolation: isolate; transform-origin: 424.97px 102.89px;" class="animable"></path></g><g id="el205fe89k7fg"><rect x="94.89" y="97.1" width="11.54" height="11.67" style="fill: rgb(255, 255, 255); opacity: 0.6; isolation: isolate; transform-origin: 100.66px 102.935px;" class="animable"></rect></g></g><g id="freepik--asset-1--inject-3" class="animable animator-active" style="transform-origin: 118.945px 220.385px;"><rect x="72.67" y="171.04" width="107.84" height="20.63" style="fill: rgb(49, 155, 128); transform-origin: 126.59px 181.355px;" id="elwf7y0c3hvbm" class="animable"></rect><g id="el87a46nzfvg"><rect x="72.67" y="171.04" width="107.84" height="20.63" style="opacity: 0.2; isolation: isolate; transform-origin: 126.59px 181.355px;" class="animable"></rect></g><rect x="79.58" y="177.05" width="8.61" height="8.61" style="fill: rgb(255, 255, 255); transform-origin: 83.885px 181.355px;" id="elv53zylpj7q" class="animable"></rect><polyline points="81.46 181.38 83.07 183.44 86.31 179.27" style="fill: none; stroke: rgb(49, 155, 128); stroke-linecap: round; stroke-linejoin: round; stroke-width: 1.5px; transform-origin: 83.885px 181.355px;" id="els3kentnit6" class="animable"></polyline><path d="M174.83,186.19h-8.66v-5.86h8.66ZM170.5,176a3.68,3.68,0,0,0-3.68,3.67h1a2.68,2.68,0,0,1,5.35,0h1A3.68,3.68,0,0,0,170.5,176Z" style="fill: rgb(49, 155, 128); transform-origin: 170.5px 181.095px;" id="elbudnb85wxcb" class="animable"></path><rect x="56.82" y="209.18" width="107.84" height="20.63" style="fill: rgb(49, 155, 128); transform-origin: 110.74px 219.495px;" id="eluezq1gf9d4o" class="animable"></rect><g id="el9hzigc5ffcs"><rect x="56.82" y="209.18" width="107.84" height="20.63" style="fill: rgb(255, 255, 255); opacity: 0.4; isolation: isolate; transform-origin: 110.74px 219.495px;" class="animable"></rect></g><rect x="63.73" y="215.18" width="8.61" height="8.61" style="fill: rgb(255, 255, 255); transform-origin: 68.035px 219.485px;" id="el13b86nza7mbb" class="animable"></rect><rect x="150.32" y="218.47" width="8.66" height="5.85" style="fill: rgb(255, 255, 255); transform-origin: 154.65px 221.395px;" id="elqvyp3h9vr3c" class="animable"></rect><path d="M158.32,217.83h-1a2.67,2.67,0,1,0-5.34,0h-1a3.67,3.67,0,1,1,7.34,0Z" style="fill: rgb(255, 255, 255); transform-origin: 154.65px 215.991px;" id="eltt27eofmy5g" class="animable"></path><rect x="73.23" y="249.1" width="107.84" height="20.63" style="fill: rgb(49, 155, 128); transform-origin: 127.15px 259.415px;" id="el2somop43r2u" class="animable"></rect><g id="el4kcgzmry7z"><rect x="73.23" y="249.1" width="107.84" height="20.63" style="fill: rgb(255, 255, 255); opacity: 0.4; isolation: isolate; transform-origin: 127.15px 259.415px;" class="animable"></rect></g><rect x="80.14" y="255.11" width="8.61" height="8.61" style="fill: rgb(255, 255, 255); transform-origin: 84.445px 259.415px;" id="el7mwb8a8x5t5" class="animable"></rect><polyline points="82.02 259.43 83.63 261.5 86.87 257.33" style="fill: none; stroke: rgb(49, 155, 128); stroke-linecap: round; stroke-linejoin: round; stroke-width: 1.5px; transform-origin: 84.445px 259.415px;" id="el0vwsuwd9t1y" class="animable"></polyline><g id="ele288186493q"><g style="opacity: 0.6; isolation: isolate; transform-origin: 171.06px 259.064px;" class="animable"><rect x="166.73" y="258.39" width="8.66" height="5.85" style="fill: rgb(255, 255, 255); transform-origin: 171.06px 261.315px;" id="el2i3redgwi9w" class="animable"></rect><path d="M174.73,257.76h-1a2.68,2.68,0,1,0-5.35,0h-1a3.68,3.68,0,1,1,7.35,0Z" style="fill: rgb(255, 255, 255); transform-origin: 171.055px 255.824px;" id="elr5xu0sz6za" class="animable"></path></g></g></g><g id="freepik--asset-2--inject-3" class="animable" style="transform-origin: 349.37px 297.601px;"><rect x="326.97" y="226.62" width="84.21" height="54.77" style="fill: rgb(49, 155, 128); transform-origin: 369.075px 254.005px;" id="elgya2ley15ir" class="animable"></rect><g id="elkuh0mf9tj9p"><rect x="326.97" y="226.62" width="84.21" height="54.77" style="fill: rgb(255, 255, 255); opacity: 0.5; isolation: isolate; transform-origin: 369.075px 254.005px;" class="animable"></rect></g><rect x="330.05" y="236.88" width="78.05" height="41.76" style="fill: rgb(49, 155, 128); transform-origin: 369.075px 257.76px;" id="elrc5ilnbuh6e" class="animable"></rect><rect x="336.41" y="243.12" width="57.73" height="1.8" style="fill: rgb(255, 255, 255); transform-origin: 365.275px 244.02px;" id="elfc9pbbfxn2" class="animable"></rect><rect x="336.41" y="248.63" width="27.7" height="1.8" style="fill: rgb(255, 255, 255); transform-origin: 350.26px 249.53px;" id="elm25sacseeko" class="animable"></rect><rect x="336.41" y="254.13" width="34.89" height="1.8" style="fill: rgb(255, 255, 255); transform-origin: 353.855px 255.03px;" id="el5hsmw2tl1qh" class="animable"></rect><rect x="336.41" y="259.63" width="12.3" height="1.8" style="fill: rgb(255, 255, 255); transform-origin: 342.56px 260.53px;" id="elsirx5le1k3o" class="animable"></rect><rect x="336.41" y="265.13" width="7.96" height="1.8" style="fill: rgb(255, 255, 255); transform-origin: 340.39px 266.03px;" id="elazhff287aaj" class="animable"></rect><path d="M413.59,334.62v30.54a3.44,3.44,0,0,1-2.94,3.41,3,3,0,0,1-.52,0H370.9a3.45,3.45,0,0,1-3.45-3.45V334.62a3.35,3.35,0,0,1,.35-1.51,3.45,3.45,0,0,1,3.1-1.95h15.38a3.54,3.54,0,0,0,2-.66,3.5,3.5,0,0,0,1.26-1.72,3.46,3.46,0,0,1,3.29-2.39H401a3.45,3.45,0,0,1,3.29,2.39,3.46,3.46,0,0,0,3.29,2.38h2.51A3.46,3.46,0,0,1,413.59,334.62Z" style="fill: rgb(49, 155, 128); transform-origin: 390.52px 347.486px;" id="eli1ehnj3y9y" class="animable"></path><g id="elzl8rgx2pzrs"><path d="M410.65,336.06v32.51l0,0H370.9a3.45,3.45,0,0,1-3.45-3.45V334.62a3.35,3.35,0,0,1,.35-1.51h39.9A3,3,0,0,1,410.65,336.06Z" style="fill: rgb(255, 255, 255); opacity: 0.3; isolation: isolate; transform-origin: 389.05px 350.84px;" class="animable"></path></g><polygon points="319.97 289.67 319.97 327.86 312.51 335.32 285.15 335.32 285.15 289.67 319.97 289.67" style="fill: rgb(49, 155, 128); transform-origin: 302.56px 312.495px;" id="elg0nn4ils3rn" class="animable"></polygon><g id="elflaunadnlh8"><polygon points="319.97 289.67 319.97 327.86 312.51 335.32 285.15 335.32 285.15 289.67 319.97 289.67" style="fill: rgb(255, 255, 255); opacity: 0.4; isolation: isolate; transform-origin: 302.56px 312.495px;" class="animable"></polygon></g><polygon points="319.97 327.86 312.51 327.86 312.51 335.32 319.97 327.86" style="fill: rgb(49, 155, 128); transform-origin: 316.24px 331.59px;" id="elcl1vhs86iw9" class="animable"></polygon><rect x="289.49" y="297.42" width="26.26" height="1.43" style="fill: rgb(49, 155, 128); transform-origin: 302.62px 298.135px;" id="elb6ptr9jcmck" class="animable"></rect><rect x="289.49" y="301.81" width="22.09" height="1.43" style="fill: rgb(49, 155, 128); transform-origin: 300.535px 302.525px;" id="el3c2dpdrly0u" class="animable"></rect><rect x="289.49" y="306.19" width="26.26" height="1.43" style="fill: rgb(49, 155, 128); transform-origin: 302.62px 306.905px;" id="el4zwev1a3ptg" class="animable"></rect><rect x="289.49" y="310.58" width="9.8" height="1.43" style="fill: rgb(49, 155, 128); transform-origin: 294.39px 311.295px;" id="elf5vnsw0bya" class="animable"></rect><rect x="289.49" y="314.97" width="6.35" height="1.43" style="fill: rgb(49, 155, 128); transform-origin: 292.665px 315.685px;" id="el3pctztl87dc" class="animable"></rect></g><g id="freepik--Selection--inject-3" class="animable" style="transform-origin: 307.93px 173.36px;"><rect x="272.25" y="143.9" width="71.19" height="58.82" style="fill: rgb(49, 155, 128); transform-origin: 307.845px 173.31px;" id="elck5e5h4wlgh" class="animable"></rect><g id="elmahie1qrk4m"><path d="M272.25,143.9v58.82h71.19V143.9Zm68.87,56.5H274.58V146.22h66.54Z" style="fill: rgb(255, 255, 255); opacity: 0.6; isolation: isolate; transform-origin: 307.845px 173.31px;" class="animable"></path></g><g id="elrwqfg6tigz"><polygon points="274.58 184.34 294.98 169.52 310.14 184.34 325.3 175.68 341.12 185.42 341.12 200.4 274.58 200.4 274.58 184.34" style="fill: rgb(255, 255, 255); opacity: 0.3; isolation: isolate; transform-origin: 307.85px 184.96px;" class="animable"></polygon></g><g id="el2jijffevwsp"><path d="M322.64,159.59a4.87,4.87,0,1,1-4.87-4.88A4.87,4.87,0,0,1,322.64,159.59Z" style="fill: rgb(255, 255, 255); opacity: 0.6; isolation: isolate; transform-origin: 317.77px 159.58px;" class="animable"></path></g><polyline points="348.09 205.16 348.09 207.16 346.09 207.16" style="fill: none; stroke: rgb(38, 50, 56); stroke-miterlimit: 10; transform-origin: 347.09px 206.16px;" id="eln4r75ecrum" class="animable"></polyline><line x1="342.95" y1="207.17" x2="271.35" y2="207.17" style="fill: none; stroke: rgb(38, 50, 56); stroke-miterlimit: 10; stroke-dasharray: 4.18124, 3.13593; transform-origin: 307.15px 207.17px;" id="elyvewbpkkm4" class="animable"></line><polyline points="269.78 207.16 267.78 207.16 267.78 205.16" style="fill: none; stroke: rgb(38, 50, 56); stroke-miterlimit: 10; transform-origin: 268.78px 206.16px;" id="eljz8zx5uiir8" class="animable"></polyline><line x1="267.78" y1="202.27" x2="267.78" y2="143.01" style="fill: none; stroke: rgb(38, 50, 56); stroke-miterlimit: 10; stroke-dasharray: 3.85484, 2.89113; transform-origin: 267.78px 172.64px;" id="eltxjn0iezru9" class="animable"></line><polyline points="267.78 141.56 267.78 139.56 269.78 139.56" style="fill: none; stroke: rgb(38, 50, 56); stroke-miterlimit: 10; transform-origin: 268.78px 140.56px;" id="elk6gugrnvcrl" class="animable"></polyline><line x1="272.92" y1="139.56" x2="344.52" y2="139.56" style="fill: none; stroke: rgb(38, 50, 56); stroke-miterlimit: 10; stroke-dasharray: 4.18124, 3.13593; transform-origin: 308.72px 139.56px;" id="elvs7r2rw1iqi" class="animable"></line><polyline points="346.09 139.56 348.09 139.56 348.09 141.56" style="fill: none; stroke: rgb(38, 50, 56); stroke-miterlimit: 10; transform-origin: 347.09px 140.56px;" id="elr1o4djvnpwo" class="animable"></polyline><line x1="348.09" y1="144.45" x2="348.09" y2="203.72" style="fill: none; stroke: rgb(38, 50, 56); stroke-miterlimit: 10; stroke-dasharray: 3.85484, 2.89113; transform-origin: 348.09px 174.085px;" id="el3ue3qhierc4" class="animable"></line><rect x="346.51" y="137.98" width="3.15" height="3.15" style="fill: rgb(38, 50, 56); transform-origin: 348.085px 139.555px;" id="elq6rpjrsmhgm" class="animable"></rect><rect x="346.51" y="205.59" width="3.15" height="3.15" style="fill: rgb(38, 50, 56); transform-origin: 348.085px 207.165px;" id="el5vq7lg4nd0e" class="animable"></rect><rect x="266.2" y="205.59" width="3.15" height="3.15" style="fill: rgb(38, 50, 56); transform-origin: 267.775px 207.165px;" id="elvq485kokw8" class="animable"></rect><rect x="266.2" y="137.98" width="3.15" height="3.15" style="fill: rgb(38, 50, 56); transform-origin: 267.775px 139.555px;" id="eldajm7xsrp2u" class="animable"></rect><rect x="306.27" y="137.98" width="3.15" height="3.15" style="fill: rgb(38, 50, 56); transform-origin: 307.845px 139.555px;" id="elnx7eny98li" class="animable"></rect><rect x="306.36" y="205.59" width="3.15" height="3.15" style="fill: rgb(38, 50, 56); transform-origin: 307.935px 207.165px;" id="elyxm1wbysgr" class="animable"></rect><rect x="346.51" y="171.79" width="3.15" height="3.15" style="fill: rgb(38, 50, 56); transform-origin: 348.085px 173.365px;" id="elsqtxd641ir" class="animable"></rect><rect x="266.2" y="171.79" width="3.15" height="3.15" style="fill: rgb(38, 50, 56); transform-origin: 267.775px 173.365px;" id="el2l2shfc8y7s" class="animable"></rect></g><g id="freepik--Character--inject-3" class="animable" style="transform-origin: 219.549px 288.67px;"><path d="M175,236.62l-10.64,8.64s-2.6.05-3.42.91-4,7.25-3.51,8.12,5.69,2.59,6.8,1.56,3-6.94,3-7.57l13.6-9.12Z" style="fill: rgb(235, 179, 118); transform-origin: 169.104px 246.394px;" id="elpzurugaqwvc" class="animable"></path><path d="M169.28,240.61l2.38,5.19S186.29,239,189.46,235c.81-1,1.93-2.67,3.14-4.54,2-3.09,4.24-6.81,5.8-9.42,1.16-1.95,1.94-3.28,1.94-3.28l-8.28-13.06c-1.81,1.39-7.35,23.71-8.34,24.91S169.28,240.61,169.28,240.61Z" style="fill: rgb(49, 155, 128); transform-origin: 184.81px 225.25px;" id="elskevjc16rn" class="animable"></path><g style="clip-path: url(&quot;#freepik--clip-path--inject-3&quot;); transform-origin: 195.497px 220.96px;" id="elh4hbxplj2gv" class="animable"><g id="elu9t3he2763"><path d="M192.6,230.42c2-3.09,4.24-6.81,5.8-9.42l-3.85-9.5S192.46,222.4,192.6,230.42Z" style="opacity: 0.1; isolation: isolate; transform-origin: 195.497px 220.96px;" class="animable"></path></g></g><path d="M260.05,187.25l10.48-8.14s.85-2.46,1.92-3,8.11-1.55,8.8-.86.72,6.22-.6,7-7.53.76-8.12.53l-11.45,8.36Z" style="fill: rgb(235, 179, 118); transform-origin: 270.885px 183.078px;" id="elajd4pfuizuq" class="animable"></path><polygon points="171.53 411 177.8 412.11 180.38 403.55 182.72 395.69 175.49 393.16 173.39 402.6 171.53 411" style="fill: rgb(235, 179, 118); transform-origin: 177.125px 402.635px;" id="elnb84yq6aw6k" class="animable"></polygon><g id="elx9hnep9mnk"><polygon points="173.35 402.8 180.35 403.72 182.71 395.78 175.48 393.2 173.35 402.8" style="opacity: 0.2; isolation: isolate; transform-origin: 178.03px 398.46px;" class="animable"></polygon></g><polygon points="213.43 411.15 219.81 411.15 220.85 402.6 221.8 394.62 214.23 393.47 213.81 402.85 213.43 411.15" style="fill: rgb(235, 179, 118); transform-origin: 217.615px 402.31px;" id="elnbijj03zibg" class="animable"></polygon><g id="el9halvyy7gt9"><polygon points="213.81 403.41 220.85 403.1 221.8 394.87 214.23 393.59 213.81 403.41" style="opacity: 0.2; isolation: isolate; transform-origin: 217.805px 398.5px;" class="animable"></polygon></g><path d="M172.76,395.93l10.32,1.82c10.41-25.94,17.82-47.6,23-65.57,2.82-9.7,5.05-18.32,6.74-26l-.44,28.25v63.71h10.41c25.49-121,7.43-149.13,7.43-149.13l-30.5-5.1a137.19,137.19,0,0,0-2.55,17.12l-1.38,10.11-11.92,61.58Z" style="fill: rgb(38, 50, 56); transform-origin: 204.594px 321.025px;" id="el6lidj5t9sbr" class="animable"></path><polygon points="184.7 396.48 171.9 392.23 172.07 397.68 182.66 401.05 184.7 396.48" style="fill: rgb(49, 155, 128); transform-origin: 178.3px 396.64px;" id="elhtn7q4adr78" class="animable"></polygon><g id="elxpnre3235a"><polygon points="184.7 396.48 171.9 392.23 172.07 397.68 182.66 401.05 184.7 396.48" style="fill: rgb(255, 255, 255); opacity: 0.6; isolation: isolate; transform-origin: 178.3px 396.64px;" class="animable"></polygon></g><polygon points="224.21 397.07 210.87 395.11 211.98 400.45 222.99 401.93 224.21 397.07" style="fill: rgb(49, 155, 128); transform-origin: 217.54px 398.52px;" id="el3g58dgzyanm" class="animable"></polygon><g id="elm0hshu2roil"><polygon points="224.21 397.07 210.87 395.11 211.98 400.45 222.99 401.93 224.21 397.07" style="fill: rgb(255, 255, 255); opacity: 0.6; isolation: isolate; transform-origin: 217.54px 398.52px;" class="animable"></polygon></g><g id="elb2yuc9zw62"><path d="M204.73,336.93c.48-1.62,1-3.2,1.44-4.75,2.56-8.81,4.26-16.72,6.26-23.83v0l1-13.08s-6.53-14.37-4.09-24.48c-.22.57-4.54,11.59-2.84,22.6A320.44,320.44,0,0,1,204.73,336.93Z" style="opacity: 0.2; isolation: isolate; transform-origin: 209.08px 303.86px;" class="animable"></path></g><path d="M203.85,191.53a1.43,1.43,0,0,0,.27.15,11,11,0,0,0,4.15,1.4c4.26.42,7-.51,8.6-2.62h0c2.22-3.14,2.21-8.19,1.07-14.14a22.75,22.75,0,0,0-2.22-6.82s0-.09,0-.11-.09-.17-.14-.24a8.24,8.24,0,0,0-6.66-4.21,16.23,16.23,0,0,0-3.59.07C193.61,166.4,194,186,203.85,191.53Z" style="fill: rgb(235, 179, 118); transform-origin: 207.597px 179.025px;" id="elc2j09n2r1i4" class="animable"></path><g id="elx69iofavf3"><path d="M204.12,191.68a10.76,10.76,0,0,0,4.13,1.24c4.26.42,7-.65,8.58-2.79a11.75,11.75,0,0,1-7.49.36A6.1,6.1,0,0,0,204.12,191.68Z" style="opacity: 0.2; isolation: isolate; transform-origin: 210.475px 191.57px;" class="animable"></path></g><path d="M203.24,201.25c-1.05,3.26,3.14,5.05,3.14,5.05,7.37-2.33,9.05-6,9.05-6-5.6-3.66-3-12.19-3-12.19l-1.26.47-8.59.82s1.9,4.72,2.11,5.77v0C205.72,200.74,203.24,201.25,203.24,201.25Z" style="fill: rgb(235, 179, 118); transform-origin: 209.005px 197.205px;" id="el6dpz3su1clo" class="animable"></path><path d="M215.73,169.42s1.71,8.11-5.6,12.64c0,0-2.22,8.94-7.12,9.7-6.67,1-13.8-7.72-12.75-17.72C191.63,161.08,210.55,157.58,215.73,169.42Z" style="fill: rgb(38, 50, 56); transform-origin: 203.03px 177.011px;" id="elfhhemd21bfp" class="animable"></path><path d="M213.76,179.19c-.17-1.28-1.48-3.29-3.43-2.74s-2.49,5.79,2.71,6.26C213.78,182.78,214.11,181.86,213.76,179.19Z" style="fill: rgb(235, 179, 118); transform-origin: 211.42px 179.535px;" id="elxnpxjdwx129" class="animable"></path><path d="M220.48,410h-7.11a.63.63,0,0,0-.63.51l-1.46,6.59a1.09,1.09,0,0,0,.84,1.3,1,1,0,0,0,.24,0c2.91,0,3.15-.22,6.8-.22,2.25,0,9.05.23,12.16.23s3.51-3.07,2.24-3.35c-5.71-1.25-10-3-11.83-4.61A1.8,1.8,0,0,0,220.48,410Z" style="fill: rgb(38, 50, 56); transform-origin: 222.745px 414.205px;" id="elgkj4g0yayt" class="animable"></path><path d="M221,411a.16.16,0,0,1-.13-.15.17.17,0,0,1,.08-.17c.27-.17,2.66-1.64,3.48-1.21a.52.52,0,0,1,.3.49,1,1,0,0,1-.37.94,2.15,2.15,0,0,1-1.42.38A8.57,8.57,0,0,1,221,411Zm.51-.24a3.65,3.65,0,0,0,2.64-.13.72.72,0,0,0,.23-.63c0-.15-.06-.21-.11-.21a.46.46,0,0,0-.23-.05A7.25,7.25,0,0,0,221.5,410.73Z" style="fill: rgb(49, 155, 128); transform-origin: 222.805px 410.34px;" id="elheumgm2yvjb" class="animable"></path><path d="M220.94,411a.18.18,0,0,1-.08-.16c0-.1.19-2.23,1-2.93a.94.94,0,0,1,.75-.22.56.56,0,0,1,.56.46c.16.78-1.32,2.41-2.09,2.82H221A.17.17,0,0,1,220.94,411Zm1.19-2.88a4.14,4.14,0,0,0-.88,2.32c.77-.58,1.71-1.81,1.62-2.29,0-.05,0-.18-.26-.18h-.08A.59.59,0,0,0,222.13,408.13Z" style="fill: rgb(49, 155, 128); transform-origin: 222.021px 409.34px;" id="el4itruf3ptch" class="animable"></path><path d="M178.05,410h-7.12a.65.65,0,0,0-.63.51l-1.46,6.59a1.09,1.09,0,0,0,.84,1.3,1,1,0,0,0,.24,0c2.92,0,3.15-.22,6.81-.22,2.25,0,9,.23,12.15.23s3.52-3.07,2.25-3.35c-5.71-1.25-10-3-11.84-4.61A1.78,1.78,0,0,0,178.05,410Z" style="fill: rgb(38, 50, 56); transform-origin: 180.313px 414.205px;" id="elitlnucu212q" class="animable"></path><path d="M178.55,411a.16.16,0,0,1-.13-.15.18.18,0,0,1,.09-.17c.26-.17,2.65-1.64,3.48-1.21a.55.55,0,0,1,.3.49,1,1,0,0,1-.37.94,2.19,2.19,0,0,1-1.42.38A8.58,8.58,0,0,1,178.55,411Zm.51-.24a3.65,3.65,0,0,0,2.64-.13.73.73,0,0,0,.24-.63c0-.15-.07-.21-.12-.21a.4.4,0,0,0-.22-.05A7.37,7.37,0,0,0,179.06,410.73Z" style="fill: rgb(49, 155, 128); transform-origin: 180.361px 410.339px;" id="ellch3qoihr2" class="animable"></path><path d="M178.51,411a.17.17,0,0,1-.09-.16c0-.1.19-2.23,1.05-2.93a.9.9,0,0,1,.74-.22.57.57,0,0,1,.57.46c.15.78-1.33,2.41-2.09,2.82h-.09Zm1.18-2.88a4.13,4.13,0,0,0-.87,2.32c.76-.58,1.7-1.81,1.61-2.29,0-.05,0-.18-.25-.18h-.09A.59.59,0,0,0,179.69,408.13Z" style="fill: rgb(49, 155, 128); transform-origin: 179.605px 409.34px;" id="el4d2i7bhkms4" class="animable"></path><path d="M230.27,249.14s5.82-35.45-4.18-51.34c0,0-20-1.24-34,6.87,0,0,5.8,15.78,6.67,44.47Z" style="fill: rgb(49, 155, 128); transform-origin: 212.022px 223.436px;" id="el4l378vpbg48" class="animable"></path><g style="clip-path: url(&quot;#freepik--clip-path-2--inject-3&quot;); transform-origin: 228.172px 211.495px;" id="eldk0ltmp3tm7" class="animable"><g id="elj0yq6s1dud"><path d="M232.09,222c.43-4.81-1-9.44-1.2-13.52a39.43,39.43,0,0,1-6.58-7.49S222.5,215.36,232.09,222Z" style="opacity: 0.1; isolation: isolate; transform-origin: 228.172px 211.495px;" class="animable"></path></g></g><path d="M223.61,197.73s19.79-2.32,22.77-3.57c1.86-.78,16.41-10.29,16.41-10.29L266.2,189s-14.88,12-17.4,13.4c-5.9,3.24-19.16,7.82-19.16,7.82S221.63,204.6,223.61,197.73Z" style="fill: rgb(49, 155, 128); transform-origin: 244.748px 197.045px;" id="eliojdjo0f46" class="animable"></path><path d="M215.43,174.79s8.23-8.23.47-13.77-15.56,1.69-15.56,1.69-18.56,4.48-14.61,16.83,6.53,13.39.65,19.72S174.5,215,180.51,221s27-.17,33.39-9.22S209,183.28,215.43,174.79Z" style="fill: rgb(38, 50, 56); transform-origin: 198.623px 191.156px;" id="elkwyfc31kp1b" class="animable"></path><polygon points="198.74 249.14 198.61 245.78 230.63 246.59 230.63 249.7 198.74 249.14" id="el2jbnhq0ywut" class="animable" style="transform-origin: 214.62px 247.74px;"></polygon><rect x="207.6" y="246.01" width="1.29" height="3.31" style="fill: rgb(38, 50, 56); transform-origin: 208.245px 247.665px;" id="elku4owg4wnle" class="animable"></rect><rect x="222.53" y="246.38" width="1.14" height="3.62" style="fill: rgb(38, 50, 56); transform-origin: 223.1px 248.19px;" id="elez1qiypmujr" class="animable"></rect><rect x="199.49" y="245.83" width="1.09" height="3.87" style="fill: rgb(38, 50, 56); transform-origin: 200.035px 247.765px;" id="elt3zbavfzg0p" class="animable"></rect></g><defs><filter id="active" height="200%"></filter><filter id="hover" height="200%"></filter></defs><defs><clipPath id="freepik--clip-path--inject-3"><path d="M169.28,240.61l2.38,5.19S186.29,239,189.46,235c.81-1,1.93-2.67,3.14-4.54,2-3.09,4.24-6.81,5.8-9.42,1.16-1.95,1.94-3.28,1.94-3.28l-8.28-13.06c-1.81,1.39-7.35,23.71-8.34,24.91S169.28,240.61,169.28,240.61Z" style="fill:#319B80"></path></clipPath><clipPath id="freepik--clip-path-2--inject-3"><path d="M230.27,249.14s5.82-35.45-4.18-51.34c0,0-20-1.24-34,6.87,0,0,5.8,15.78,6.67,44.47Z" style="fill:#319B80"></path></clipPath></defs></svg>