<svg id="visual" viewBox="0 0 1500 1000" width="1500" height="1000" xmlns="http://www.w3.org/2000/svg" xmlns:xlink="http://www.w3.org/1999/xlink" version="1.1"><path d="M1364 1000L1454 833L1349 667L1229 500L1334 333L1424 167L1409 0L1500 0L1500 167L1500 333L1500 500L1500 667L1500 833L1500 1000Z" fill="#00cc8e"></path><path d="M1244 1000L1304 833L1154 667L1064 500L1244 333L1244 167L1214 0L1410 0L1425 167L1335 333L1230 500L1350 667L1455 833L1365 1000Z" fill="#00c08c"></path><path d="M1139 1000L1184 833L974 667L989 500L1109 333L1049 167L1109 0L1215 0L1245 167L1245 333L1065 500L1155 667L1305 833L1245 1000Z" fill="#00b388"></path><path d="M989 1000L1004 833L794 667L884 500L839 333L674 167L749 0L1110 0L1050 167L1110 333L990 500L975 667L1185 833L1140 1000Z" fill="#00a784"></path><path d="M569 1000L524 833L494 667L644 500L719 333L329 167L449 0L750 0L675 167L840 333L885 500L795 667L1005 833L990 1000Z" fill="#009b7f"></path><path d="M104 1000L209 833L164 667L209 500L224 333L74 167L194 0L450 0L330 167L720 333L645 500L495 667L525 833L570 1000Z" fill="#008f79"></path><path d="M0 1000L0 833L0 667L0 500L0 333L0 167L0 0L195 0L75 167L225 333L210 500L165 667L210 833L105 1000Z" fill="#038373"></path></svg>